<svg xmlns="http://www.w3.org/2000/svg" viewBox="0 0 24 24" fill="currentColor" aria-hidden="true">
  <path d="M11.998 24c-.321 0-.641-.084-.922-.247l-2.936-1.737c-.438-.245-.224-.332-.08-.383.585-.203.703-.25 1.328-.604.065-.037.151-.023.218.017l2.256 1.339a.293.293 0 0 0 .272 0l8.795-5.076a.276.276 0 0 0 .134-.238V6.921a.283.283 0 0 0-.137-.242l-8.791-5.072a.277.277 0 0 0-.271 0L3.075 6.68a.281.281 0 0 0-.139.241v10.15c0 .093.054.183.139.234l2.409 1.392c1.307.654 2.108-.116 2.108-.89V7.787c0-.142.114-.253.256-.253h1.115c.139 0 .255.112.255.253v10.021c0 1.745-.95 2.745-2.604 2.745-.508 0-.909 0-2.026-.551L2.28 18.675a1.857 1.857 0 0 1-.922-1.604V6.921c0-.659.353-1.275.922-1.603L11.075.235a1.93 1.93 0 0 1 1.85 0l8.794 5.083c.57.329.924.944.924 1.603v10.15c0 .659-.354 1.272-.924 1.604l-8.794 5.078A1.832 1.832 0 0 1 11.998 24zm2.717-6.993c-3.849 0-4.654-1.766-4.654-3.247 0-.142.114-.253.255-.253h1.137c.127 0 .234.092.254.215.171 1.157.683 1.741 3.008 1.741 1.852 0 2.64-.419 2.64-1.402 0-.566-.224-.987-3.103-1.27-2.408-.238-3.896-.768-3.896-2.692 0-1.774 1.496-2.832 4.005-2.832 2.819 0 4.215.98 4.392 3.077a.276.276 0 0 1-.067.196.252.252 0 0 1-.187.084h-1.143a.255.255 0 0 1-.249-.2c-.275-1.218-.94-1.607-2.747-1.607-2.023 0-2.257.704-2.257 1.232 0 .64.276.825 3.005 1.187 2.703.358 3.99.864 3.99 2.762.001 1.916-1.6 3.011-4.387 3.011z"/>
</svg>
