<?xml version="1.0" encoding="utf-8"?>
<!-- Generator: Adobe Illustrator 25.4.1, SVG Export Plug-In . SVG Version: 6.00 Build 0)  -->
<svg xmlns="http://www.w3.org/2000/svg" xmlns:xlink="http://www.w3.org/1999/xlink" version="1.1" id="Capa_1" x="0px" y="0px" viewBox="0 0 3840 522.7" style="enable-background:new 0 0 3840 522.7;" xml:space="preserve" fill="currentColor" stroke="currentColor">
	<polygon points="0,62.4 0,522.7 159.5,522.7 159.5,297.1 371.3,522.7 570.7,522.7 348.3,286.5 570.4,62.4 370.8,62.4 159.4,267.3       159.4,62.3 "/>
	<polygon points="636.9,62.4 636.9,375.6 851.5,375.6 851.5,522.7 1000.3,522.7 1000.3,375.6 1206.7,375.6 1206.7,62.4 1058.4,62.4       1058.4,226.6 785.1,226.6 785.1,62.4 "/>
	<polygon points="1273.1,62.4 1273.1,522.7 1843.3,522.7 1843.3,62.4 1643.5,62.4 1643.5,210.5 1694.4,210.5 1694.4,374.1       1421.3,374.1 1421.3,210.2 1478.6,210.2 1478.6,62.4 "/>
	<rect x="1505.5" width="110.7" height="276.9"/>
	<polygon points="1909.4,62.4 1909.4,522.7 2057.9,522.7 2057.9,295.6 2328.7,522.7 2478.5,522.7 2478.5,62.4 2330.2,62.4       2330.2,332.2 2012.5,62.4 "/>
	<path d="M2545.5,522.7V62.4h601.6v460.3h-148V373.9h-304.9v148.9H2545.5z M2694.3,195.3v43.2h304v-43.2H2694.3z"/>
	<polygon points="3213.4,62.4 3425,292.1 3213.4,522.7 3415,522.7 3526.7,402.3 3638,522.7 3839.9,522.7 3628,292.5 3840,62.4       3638,62.4 3526.4,182.6 3415,62.4 "/>
</svg>
